<svg width="1348" height="561" xmlns="http://www.w3.org/2000/svg" xmlns:xlink="http://www.w3.org/1999/xlink" overflow="hidden"><defs><clipPath id="clip0"><path d="M25 68 1373 68 1373 629 25 629Z" fill-rule="evenodd" clip-rule="evenodd"/></clipPath></defs><g clip-path="url(#clip0)" transform="translate(-25 -68)"><path d="M26.5001 291.8C26.5001 283.902 32.9024 277.5 40.8001 277.5L180.2 277.5C188.098 277.5 194.5 283.902 194.5 291.8L194.5 406.2C194.5 414.098 188.098 420.5 180.2 420.5L40.8001 420.5C32.9024 420.5 26.5001 414.098 26.5001 406.2Z" stroke="#FFFFFF" stroke-miterlimit="8" fill="#003C57" fill-rule="evenodd"/><text fill="#FFFFFF" font-family="Open Sans,Open Sans_MSFontService,sans-serif" font-weight="400" font-size="32" transform="translate(77.8423 359)">Plan</text><path d="M211 336.2 229 336.2 229 328 247 348.5 229 369 229 360.8 211 360.8Z" fill="#003C57" fill-rule="evenodd"/><path d="M262.5 291.8C262.5 283.902 268.902 277.5 276.8 277.5L416.2 277.5C424.098 277.5 430.5 283.902 430.5 291.8L430.5 406.2C430.5 414.098 424.098 420.5 416.2 420.5L276.8 420.5C268.902 420.5 262.5 414.098 262.5 406.2Z" stroke="#FFFFFF" stroke-miterlimit="8" fill="#003C57" fill-rule="evenodd"/><text fill="#FFFFFF" font-family="Open Sans,Open Sans_MSFontService,sans-serif" font-weight="400" font-size="32" transform="translate(291.595 320)">Collect, <tspan x="-6.50665" y="39">Acquire, </tspan><tspan x="8.71335" y="78">Ingest</tspan></text><path d="M446 336.2 464 336.2 464 328 482 348.5 464 369 464 360.8 446 360.8Z" fill="#003C57" fill-rule="evenodd"/><path d="M497.5 291.8C497.5 283.902 503.902 277.5 511.8 277.5L651.2 277.5C659.098 277.5 665.5 283.902 665.5 291.8L665.5 406.2C665.5 414.098 659.098 420.5 651.2 420.5L511.8 420.5C503.902 420.5 497.5 414.098 497.5 406.2Z" stroke="#FFFFFF" stroke-miterlimit="8" fill="#003C57" fill-rule="evenodd"/><text fill="#FFFFFF" font-family="Open Sans,Open Sans_MSFontService,sans-serif" font-weight="400" font-size="32" transform="translate(518.348 320)">Prepare, <tspan x="-8.18002" y="39">store and </tspan><tspan x="-3.43335" y="78">maintain</tspan></text><path d="M682 336.2 699.5 336.2 699.5 328 717 348.5 699.5 369 699.5 360.8 682 360.8Z" fill="#003C57" fill-rule="evenodd"/><path d="M732.5 291.8C732.5 283.902 738.902 277.5 746.8 277.5L886.2 277.5C894.098 277.5 900.5 283.902 900.5 291.8L900.5 406.2C900.5 414.098 894.098 420.5 886.2 420.5L746.8 420.5C738.902 420.5 732.5 414.098 732.5 406.2Z" stroke="#FFFFFF" stroke-miterlimit="8" fill="#003C57" fill-rule="evenodd"/><text fill="#FFFFFF" font-family="Open Sans,Open Sans_MSFontService,sans-serif" font-weight="400" font-size="32" transform="translate(755.411 339)">Use and <tspan x="3.40002" y="39">process</tspan></text><path d="M917 336.2 935 336.2 935 328 953 348.5 935 369 935 360.8 917 360.8Z" fill="#003C57" fill-rule="evenodd"/><path d="M968.5 291.8C968.5 283.902 974.902 277.5 982.8 277.5L1122.2 277.5C1130.1 277.5 1136.5 283.902 1136.5 291.8L1136.5 406.2C1136.5 414.098 1130.1 420.5 1122.2 420.5L982.8 420.5C974.902 420.5 968.5 414.098 968.5 406.2Z" stroke="#FFFFFF" stroke-miterlimit="8" fill="#003C57" fill-rule="evenodd"/><text fill="#FFFFFF" font-family="Open Sans,Open Sans_MSFontService,sans-serif" font-weight="400" font-size="32" transform="translate(1009.03 320)">Share <tspan x="14.16" y="39">and </tspan><tspan x="-12.2866" y="78">publish</tspan></text><path d="M1153 336.2 1170.5 336.2 1170.5 328 1188 348.5 1170.5 369 1170.5 360.8 1153 360.8Z" fill="#003C57" fill-rule="evenodd"/><path d="M1203.5 291.8C1203.5 283.902 1209.9 277.5 1217.8 277.5L1357.2 277.5C1365.1 277.5 1371.5 283.902 1371.5 291.8L1371.5 406.2C1371.5 414.098 1365.1 420.5 1357.2 420.5L1217.8 420.5C1209.9 420.5 1203.5 414.098 1203.5 406.2Z" stroke="#FFFFFF" stroke-miterlimit="8" fill="#003C57" fill-rule="evenodd"/><text fill="#FFFFFF" font-family="Open Sans,Open Sans_MSFontService,sans-serif" font-weight="400" font-size="32" transform="translate(1232.28 320)">Archive <tspan x="38.62" y="39">or </tspan><tspan x="-0.866699" y="78">destroy</tspan></text></g></svg>